<svg width="19" height="23" viewBox="0 0 19 23" fill="none" xmlns="http://www.w3.org/2000/svg">
<path fill-rule="evenodd" clip-rule="evenodd" d="M9.49301 12.393H9.41902C8.06365 12.3691 6.9674 11.8784 6.16261 10.9402C4.38181 8.87304 4.67782 5.3295 4.71016 4.99124C4.82583 2.43365 6.00991 1.21914 6.98132 0.652286C7.94808 0.085564 8.95649 -8.01086e-05 9.46985 -8.01086e-05H9.49761H9.5161H9.54853C10.4828 0.0189779 11.3201 0.24757 12.037 0.671474C12.9992 1.2382 14.1649 2.45271 14.2805 4.99124C14.3128 5.3295 14.6089 8.87304 12.828 10.9402C12.0185 11.8784 10.9223 12.3691 9.56703 12.393H9.52077H9.49301ZM5.94786 5.08757C5.94659 5.09465 5.94517 5.10253 5.94517 5.11045C5.94059 5.13903 5.62607 8.3921 7.09234 10.0877C7.67056 10.7639 8.45228 11.0974 9.46985 11.1069H9.49301H9.5161C10.5384 11.0974 11.3155 10.7639 11.8983 10.0877C13.3692 8.38255 13.0455 5.14373 13.0408 5.11045C13.0362 5.10091 13.0362 5.08656 13.0362 5.07234C12.8928 1.84303 10.7697 1.319 9.52077 1.29053H9.48376H9.46527C8.45686 1.29053 6.10242 1.65726 5.94984 5.07234C5.94984 5.07661 5.9489 5.08182 5.94786 5.08757ZM18.9986 18.256V18.2703C19.0032 18.518 19.0078 19.7897 18.7766 20.4232C18.7302 20.547 18.6424 20.6518 18.5359 20.7231L18.5342 20.7242C18.3721 20.8302 15.0505 22.9998 9.50695 22.9998C3.94235 22.9998 0.616506 20.8184 0.477747 20.7231C0.366749 20.6518 0.283489 20.547 0.237236 20.4232C-0.00785186 19.7848 -0.00327485 18.5131 0.00139414 18.2655V18.2513C0.00597114 18.2132 0.0059713 18.175 0.0059713 18.1322L0.00617985 18.1252C0.0340222 17.1829 0.0989159 14.9868 2.10139 14.279L2.10598 14.2774C2.11834 14.2732 2.13117 14.2688 2.14764 14.2646C4.24294 13.717 5.96833 12.4786 5.98685 12.4643C6.26903 12.2594 6.65755 12.3309 6.85641 12.6215C7.05533 12.9119 6.98601 13.3122 6.7038 13.517C6.70016 13.5194 6.69275 13.5245 6.68169 13.5322C6.45379 13.6902 4.67757 14.9216 2.48066 15.503C1.4029 15.8983 1.28266 17.0843 1.25023 18.1702C1.25023 18.1923 1.24901 18.2132 1.24783 18.2334C1.24673 18.2524 1.24565 18.2709 1.24565 18.2894C1.2364 18.718 1.26872 19.38 1.34273 19.7612C2.09672 20.1993 5.05242 21.7186 9.50228 21.7186C13.9705 21.7186 16.9078 20.204 17.6571 19.7658C17.7311 19.3848 17.7589 18.7228 17.7543 18.2941C17.7496 18.256 17.7496 18.2178 17.7496 18.175C17.7173 17.0891 17.597 15.9031 16.5192 15.5077C14.2157 14.8982 12.3748 13.5789 12.2961 13.5217C12.014 13.3169 11.9445 12.9169 12.1435 12.6261C12.3424 12.3358 12.7309 12.2642 13.013 12.4691C13.0315 12.4833 14.7662 13.7217 16.8523 14.2693C16.8596 14.272 16.8682 14.2745 16.8767 14.277C16.8843 14.2793 16.8919 14.2815 16.8985 14.2838C18.9013 14.9869 18.9659 17.1836 18.9937 18.1304L18.9939 18.137C18.9939 18.159 18.9951 18.1797 18.9963 18.1999C18.9975 18.2189 18.9986 18.2374 18.9986 18.256Z" fill="#32405B"/>
</svg>
