<svg width="17" height="14" viewBox="0 0 17 14" fill="none" xmlns="http://www.w3.org/2000/svg">
<path d="M15.7404 0H4.07571C3.37582 0 2.81592 0.551547 2.81592 1.20744V8.15395C2.81592 8.82476 3.39138 9.3614 4.07571 9.3614H12.1166L13.9363 11.1204C14.0141 11.1949 14.1074 11.2396 14.2163 11.2396C14.434 11.2396 14.6206 11.0757 14.6206 10.8521V9.3614H15.7404C16.4403 9.3614 17.0002 8.80985 17.0002 8.15395V1.20744C17.0002 0.536641 16.4248 0 15.7404 0ZM5.8643 5.97758C5.22663 5.97758 4.69783 5.47075 4.69783 4.85958C4.69783 4.2484 5.22663 3.74158 5.8643 3.74158C6.50197 3.74158 7.03078 4.2484 7.03078 4.85958C7.03078 5.47075 6.51753 5.97758 5.8643 5.97758ZM9.95474 5.97758C9.31706 5.97758 8.78826 5.47075 8.78826 4.85958C8.78826 4.2484 9.31706 3.74158 9.95474 3.74158C10.5924 3.74158 11.1212 4.2484 11.1212 4.85958C11.1212 5.47075 10.5924 5.97758 9.95474 5.97758ZM14.0296 5.97758C13.3919 5.97758 12.8631 5.47075 12.8631 4.85958C12.8631 4.2484 13.3919 3.74158 14.0296 3.74158C14.6673 3.74158 15.1961 4.2484 15.1961 4.85958C15.1961 5.47075 14.6673 5.97758 14.0296 5.97758Z" fill="#CA4635"/>
<path d="M2.10012 8.18376V5.8136H0.824777C0.373741 5.8136 0.000468981 6.17136 0.000468981 6.60365V11.1651C-0.015084 11.6272 0.358188 11.985 0.824777 11.985H1.55577V12.9688C1.55577 13.103 1.68019 13.2222 1.82017 13.2222C1.89793 13.2222 1.96014 13.1924 2.0068 13.1477L3.20438 11.9999H8.4924C8.94343 11.9999 9.3167 11.6421 9.3167 11.2098V10.0769H4.07535C2.98664 10.0769 2.10012 9.22723 2.10012 8.18376Z" fill="#CA4635"/>
</svg>
