<svg width="32" height="32" viewBox="0 0 32 32" fill="none" xmlns="http://www.w3.org/2000/svg">
<path d="M15.9997 0C7.16343 0 0 7.16359 0 15.9998C0 24.8359 7.16343 32 15.9997 32C24.836 32 32 24.8359 32 15.9998C32 7.16359 24.836 0 15.9997 0ZM16.0001 5.6199L25.4683 11.524H6.53184L16.0001 5.6199ZM25.5862 20.952H25.5853C25.5853 21.899 24.8178 22.6664 23.8709 22.6664H8.1292C7.1822 22.6664 6.41483 21.8989 6.41483 20.952V11.8996C6.41483 11.7995 6.42507 11.7021 6.44171 11.6064L15.488 17.2473C15.4991 17.2543 15.511 17.2589 15.5224 17.2653C15.5343 17.272 15.5465 17.2784 15.5587 17.2844C15.6226 17.3174 15.6884 17.344 15.7557 17.3613C15.7626 17.3633 15.7695 17.3641 15.7765 17.3657C15.8503 17.3831 15.9251 17.394 15.9997 17.394H16.0003C16.0008 17.394 16.0013 17.394 16.0013 17.394C16.076 17.394 16.1508 17.3834 16.2246 17.3657C16.2315 17.364 16.2385 17.3633 16.2454 17.3613C16.3126 17.344 16.3782 17.3174 16.4424 17.2844C16.4546 17.2784 16.4667 17.272 16.4787 17.2653C16.49 17.2589 16.5019 17.2543 16.513 17.2473L25.5594 11.6064C25.576 11.7021 25.5862 11.7993 25.5862 11.8996V20.952Z" fill="#CA4635"/>
</svg>
