<svg width="32" height="19" viewBox="0 0 32 19" fill="none" xmlns="http://www.w3.org/2000/svg">
    <path fill-rule="evenodd" clip-rule="evenodd" d="M9.76553 0.00012207C14.9884 0.00012207 19.2225 4.24899 19.2225 9.49024C19.2225 14.7315 14.9884 18.9803 9.76553 18.9803C4.54264 18.9803 0.308594 14.7315 0.308594 9.49024C0.308594 4.24899 4.54264 0.00012207 9.76553 0.00012207Z" fill="#EA001B"/>
    <path fill-rule="evenodd" clip-rule="evenodd" d="M21.5858 0.00012207C26.8088 0.00012207 31.0428 4.24899 31.0428 9.49024C31.0428 14.7315 26.8088 18.9803 21.5858 18.9803C16.3629 18.9803 12.1289 14.7315 12.1289 9.49024C12.1289 4.24899 16.3629 0.00012207 21.5858 0.00012207Z" fill="#F3C421"/>
    <path fill-rule="evenodd" clip-rule="evenodd" d="M12.0586 9.45425C12.0586 12.4693 13.4584 15.1559 15.6407 16.8953C17.823 15.1558 19.2229 12.4693 19.2229 9.45425C19.2229 6.43916 17.8231 3.75258 15.6407 2.01318C13.4584 3.75273 12.0586 6.43922 12.0586 9.45425Z" fill="#FF5F01"/>
</svg>
