<svg width="19" height="19" viewBox="0 0 19 19" fill="none" xmlns="http://www.w3.org/2000/svg">
<path fill-rule="evenodd" clip-rule="evenodd" d="M18.6803 18.6903C18.2548 19.1023 17.5651 19.1023 17.1396 18.6903L12.7154 14.4057C11.4116 15.2651 9.83687 15.7676 8.14076 15.7676C3.64476 15.7676 0 12.2379 0 7.88377C0 3.52964 3.64476 -8.01086e-05 8.14076 -8.01086e-05C12.6368 -8.01086e-05 16.2815 3.52964 16.2815 7.88377C16.2815 9.83359 15.5501 11.6178 14.3392 12.9942L18.6803 17.1982C19.1057 17.6103 19.1057 18.2782 18.6803 18.6903ZM8.14076 2.0331C4.80433 2.0331 2.0996 4.65259 2.0996 7.88377C2.0996 11.1149 4.80433 13.7343 8.14076 13.7343C11.4772 13.7343 14.1819 11.1149 14.1819 7.88377C14.1819 4.65259 11.4772 2.0331 8.14076 2.0331Z" fill="#CA4635"/>
</svg>
